<?xml version="1.0" standalone="no"?><svg xmlns="http://www.w3.org/2000/svg" viewBox="0 0 1440 320"><path fill="#ffa500" fill-opacity="1" d="M0,192L14.1,208C28.2,224,56,256,85,250.7C112.9,245,141,203,169,165.3C197.6,128,226,96,254,90.7C282.4,85,311,107,339,138.7C367.1,171,395,213,424,229.3C451.8,245,480,235,508,197.3C536.5,160,565,96,593,101.3C621.2,107,649,181,678,213.3C705.9,245,734,235,762,213.3C790.6,192,819,160,847,165.3C875.3,171,904,213,932,197.3C960,181,988,107,1016,64C1044.7,21,1073,11,1101,26.7C1129.4,43,1158,85,1186,106.7C1214.1,128,1242,128,1271,149.3C1298.8,171,1327,213,1355,234.7C1383.5,256,1412,256,1426,256L1440,256L1440,320L1425.9,320C1411.8,320,1384,320,1355,320C1327.1,320,1299,320,1271,320C1242.4,320,1214,320,1186,320C1157.6,320,1129,320,1101,320C1072.9,320,1045,320,1016,320C988.2,320,960,320,932,320C903.5,320,875,320,847,320C818.8,320,791,320,762,320C734.1,320,706,320,678,320C649.4,320,621,320,593,320C564.7,320,536,320,508,320C480,320,452,320,424,320C395.3,320,367,320,339,320C310.6,320,282,320,254,320C225.9,320,198,320,169,320C141.2,320,113,320,85,320C56.5,320,28,320,14,320L0,320Z"></path></svg>